<?xml version="1.0" encoding="UTF-8"?>
<svg id="Layer_1" data-name="Layer 1" xmlns="http://www.w3.org/2000/svg" xmlns:xlink="http://www.w3.org/1999/xlink" viewBox="0 0 800 800">
  <defs>
    <style>
      .cls-1 {
        fill: url(#linear-gradient-2);
      }

      .cls-2, .cls-3 {
        fill: #fff;
      }

      .cls-4 {
        fill: #5cb303;
      }

      .cls-4, .cls-3, .cls-5, .cls-6, .cls-7, .cls-8, .cls-9 {
        fill-rule: evenodd;
      }

      .cls-10 {
        fill: #f3ff8b;
      }

      .cls-5 {
        fill: #0059a8;
      }

      .cls-11 {
        letter-spacing: 0em;
      }

      .cls-12 {
        fill: url(#linear-gradient-6);
      }

      .cls-6 {
        fill: #003d82;
      }

      .cls-13 {
        fill: #03a5e6;
      }

      .cls-14 {
        fill: #fdffa2;
      }

      .cls-15 {
        fill: #0165a9;
        font-family: Gotham-Black, 'Gotham Black';
        font-size: 82.15px;
        font-weight: 800;
      }

      .cls-16 {
        fill: #deeb6f;
      }

      .cls-17 {
        fill: #5cb203;
      }

      .cls-7 {
        fill: #79c6e7;
      }

      .cls-18 {
        fill: url(#linear-gradient-5);
      }

      .cls-19 {
        fill: #03a4e5;
      }

      .cls-20 {
        fill: #fcfea1;
      }

      .cls-21 {
        fill: #dfec6f;
      }

      .cls-22 {
        fill: url(#linear-gradient-7);
      }

      .cls-23 {
        letter-spacing: 0em;
      }

      .cls-24 {
        fill: #fabb00;
      }

      .cls-25 {
        fill: url(#linear-gradient-3);
      }

      .cls-26 {
        fill: url(#linear-gradient);
      }

      .cls-8 {
        fill: #019ce2;
      }

      .cls-27 {
        fill: url(#linear-gradient-4);
      }

      .cls-28 {
        letter-spacing: -.02em;
      }

      .cls-9 {
        fill: #a2dadd;
      }
    </style>
    <linearGradient id="linear-gradient" x1="183.44" y1="324.14" x2="450.9" y2="324.14" gradientUnits="userSpaceOnUse">
      <stop offset="0" stop-color="#065c18"/>
      <stop offset="1" stop-color="#70bc09"/>
    </linearGradient>
    <linearGradient id="linear-gradient-2" x1="402.35" y1="316.8" x2="584.57" y2="316.8" gradientUnits="userSpaceOnUse">
      <stop offset="0" stop-color="#00448b"/>
      <stop offset=".87" stop-color="#016db0"/>
    </linearGradient>
    <linearGradient id="linear-gradient-3" x1="282.3" y1="411.01" x2="627.2" y2="411.01" gradientUnits="userSpaceOnUse">
      <stop offset="0" stop-color="#0376b2"/>
      <stop offset=".87" stop-color="#0fb0ef"/>
    </linearGradient>
    <linearGradient id="linear-gradient-4" x1="342.68" y1="190.86" x2="342.68" y2="103.89" xlink:href="#linear-gradient"/>
    <linearGradient id="linear-gradient-5" x1="393.41" y1="155.47" x2="476.34" y2="155.47" xlink:href="#linear-gradient"/>
    <linearGradient id="linear-gradient-6" x1="250.89" y1="444.59" x2="313.03" y2="444.59" gradientUnits="userSpaceOnUse">
      <stop offset="0" stop-color="#addb21"/>
      <stop offset=".87" stop-color="#8cc63f"/>
    </linearGradient>
    <linearGradient id="linear-gradient-7" x1="299.42" y1="459.28" x2="326.5" y2="459.28" xlink:href="#linear-gradient-6"/>
  </defs>
  <path class="cls-9" d="m210.01,327.32c0,26.04,5.5,32.4,6.16,40.22,12.11-2.83,25.89-12.67,45.73,7.67.91.96,1.21,1.31,2.12,2.27,2.32,2.42-.1,1.26,2.93,2.32,0-11.31.56-22.41-13.78-28.26-9.14-3.79-5.3-.61-8.02-9.49-.86-2.88-2.42-5.9-4.24-7.97-11.81-13.48-24.07-7.37-30.89-6.76h0Z"/>
  <path class="cls-26" d="m307.28,174.82c-3.54,2.14-7.1,4.25-10.62,6.42-30.66,18.88-55.33,43.62-72.04,75.65-14.23,27.27-20.96,56.5-19.46,87.33.44,9.09,2.26,18.11,3.35,27.18.38,3.19,2.56,4.1,5.15,4.26,22.71,1.38,41.91,11.33,60.36,23.72,5.28,3.55,11.97,4.99,18,7.42,13.72,5.54,27.42,11.1,41.14,16.63,1.82.73,3.71,1.28,5.6,1.93,3.45-13.47-7.34-28.35-20.35-28.39-6.22-.02-12.44.76-18.66.99-3.45.13-6.96.14-10.38-.28-6.91-.85-9.3-3.7-9.24-10.73.02-3.18.12-6.42.72-9.53.74-3.82.22-7.15-2.08-10.29-.66-.9-1.6-2.41-1.27-3.09,2.27-4.71-.72-7.22-3.37-10.37-1.13-1.35-.98-4.45-.38-6.45,1.72-5.7,1.46-6.86-3.89-9.62-3.35-1.73-6.82-3.25-10.07-5.16-3.89-2.28-4.52-4.44-2.1-8.24,4.28-6.73,8.19-13.87,13.47-19.74,6.53-7.25,6.94-15.14,6.62-24.15-.5-14.17-.19-28.48,5.45-41.93,6.98-16.61,20.26-26.73,36.28-33.2,22.89-9.25,46.69-12.38,70.71-5.23,24.11,7.17,43.76,20.73,54.83,44.24,7.66,16.26,6.99,33.22,2.6,50.22-5.52,21.35-17.28,39.46-29.76,57.2-7.76,11.03-15.6,21.94-20.69,34.64-6.99,17.45-6.6,34.8-.83,52.34,2.15,6.55,2.21,6.65-4.13,9.66-21.92,10.43-44.13,20.29-68.33,24.01-34.79,5.35-67.35-.2-96.02-21.93-17.2-13.03-28.16-30.58-35.57-50.54-5.61-15.1-7.93-30.75-8.66-46.84-1.46-31.85,5.26-61.76,20.64-89.52,18.27-32.98,43.96-58.92,76.86-77.48,7.31-4.12,15.07-7.46,22.65-11.08.96-.46,2.12-.5,3.19-.73.1.23.2.47.3.7Z"/>
  <path class="cls-24" d="m390.69,276.79c.05-.88.59-8.45,6.78-12.42,3.77-2.42,7.68-2.26,8.26-2.23.7.04,3.83.26,6.97,2.37,0,0,4.18,2.8,5.84,7.72.29.86.38,1.62,1.04,3.41.4,1.09.56,1.31.45,1.63-.34.98-2.61,1.11-6.38.99-4.86-.16-5.41-.52-8.95-.64-4.23-.15-5.05.31-8.9-.05-2.17-.2-3.93-.53-5.1-.78Z"/>
  <path class="cls-1" d="m408.37,198.19c5.84-.82,11.66-2.07,17.53-2.39,24.36-1.32,47.65,3.02,69.57,13.98,18.63,9.32,29.25,24.46,32.83,44.86,2.16,12.33,3.74,24.62,1.98,37.18-.28,1.98.96,4.55,2.23,6.31,5.35,7.4,11.2,14.44,16.45,21.9,6.75,9.59,6.47,10.11-4.08,15.48-1.42.72-2.73,1.7-4.19,2.31-4.28,1.8-5.36,4.83-4,9.14.96,3.05-.04,5.55-2.33,7.87-.91.92-.97,2.81-1.18,4.29-.38,2.57.16,5.58-1.01,7.67-1.92,3.44-2.4,6.67-1.68,10.4.62,3.26,1.21,6.58,1.28,9.88.13,5.91-3.35,9.76-9.26,9.76-6.21,0-12.42-.81-18.63-1.17-7.35-.43-14.73-1.52-21.8,1.96-6.72,3.31-11.49,11.36-10.81,18.36,18.57-3.17,37.06-7.37,55.78-9.25,18.99-1.91,37.72,2.07,57.53,7.17-2.55,2.58-4.08,4.61-6.06,6.03-9.69,6.92-20.51,10.55-32.45,11.08-13.21.58-26-1.69-38.67-5.06-32.41-8.62-63.21-3.05-93.1,10.56-5.32,2.42-5.5,2.41-7.49-2.96-7.39-20.03-5.49-39.56,4.79-57.91,8.07-14.41,17.69-27.94,26.08-42.18,10.17-17.25,17.95-35.56,19.57-55.77,1.7-21.17-3.88-40.17-18.58-56.08-8.68-9.4-19.13-16.3-30.45-22.06.04-.45.09-.89.13-1.34Z"/>
  <path class="cls-25" d="m282.56,478.34c6.16.69,12.3,1.75,18.48,1.99,21.98.85,43.09-3.87,63.21-12.15,17.4-7.16,34.29-15.6,51.28-23.74,22.42-10.74,45.83-16.62,70.77-14.34,8.48.77,16.81,3.06,25.23,4.59,8.98,1.64,17.91,4.01,26.96,4.65,25.63,1.81,45.08-9.09,59.17-30.32,12.54-18.89,19.19-39.89,22.7-62.03,1.11-6.98,1.7-14.03,3.17-21.37.42,1.04,1.03,2.04,1.23,3.12,4.67,25.32,2.39,50.22-4.5,74.85-8.29,29.65-24.02,54.85-45.84,76.32-5.56,5.47-11.94,10.12-17.92,15.17-2.28,1.92-4.26,1.68-6.55-.23-19.76-16.49-42.77-24.96-68.11-28.33-30.65-4.08-60.06,1.73-89.27,9.81-18.79,5.2-37.75,9.06-57.34,9.6-16.33.45-32.42-.56-48.17-5.17-1.61-.47-3.17-1.12-4.76-1.69.09-.24.17-.48.26-.72Zm155.83-23c22-5.75,44.26-5.9,66.68-2.71-22.74-11.48-44.83-7.27-66.68,2.71Zm126.42-6.66c-12.59,3.72-24.88,7.35-36.4,10.76,13.22,2.33,25.07-2.91,36.4-10.76Z"/>
  <path class="cls-17" d="m199.15,434.76c6.92,6.33,12.87,12,19.07,17.39,19.71,17.16,42.61,28.39,67.44,36,32.53,9.96,65.22,9.08,98.01,1.46,17.38-4.04,34.66-8.55,52.14-12.06,28.29-5.67,56.36-5.22,83.27,6.5,9.04,3.94,17.42,9.39,26.11,14.14-.22.5-.44.99-.66,1.49-.77-.05-1.6.09-2.29-.17-21.66-8-43.7-7.02-65.57-1.76-15.63,3.76-30.94,8.87-46.32,13.6-24.3,7.49-49.05,12.25-74.54,10.89-42.42-2.26-81.6-14.42-115.64-40.57-15.97-12.27-29.83-26.67-39.82-44.41-.27-.48-.48-1-1.2-2.5Z"/>
  <path class="cls-27" d="m323.06,125.38c23.93,14.19,42.45,33.04,52.25,59.4-.25.56-.51,1.12-.76,1.68-8.18-1.45-16.51-2.34-24.51-4.46-22.08-5.84-36.54-20.89-45.7-40.96-4.53-9.93-6.98-20.83-10.28-31.31-.5-1.58-.5-3.33-.85-5.83,4.22.44,7.78.6,11.27,1.2,15.17,2.6,30.19,5.8,44.33,12.22,22.71,10.31,36.01,28.06,41.04,52.21,1.12,5.37,1.74,10.87,2.27,16.34.15,1.61-.82,3.33-1.27,5-2.09-.94-4.78-1.38-6.12-2.96-1.6-1.88-2-4.75-2.99-7.16-7.77-18.99-20.48-33.9-37.67-44.93-6.54-4.2-13.53-7.71-20.32-11.53-.23.37-.47.74-.7,1.11Z"/>
  <path class="cls-18" d="m476.34,120.89c-.5,32.95-38.82,68-69.12,63.08,7.4-21.35,21.35-36.25,41.91-45.15-20.88,5.66-36.44,17.68-45.18,37.82-1.61,3.72-2.73,7.67-4.51,11.3-.58,1.18-2.49,2.24-3.84,2.31-.7.04-2.26-2.25-2.18-3.41,1.2-17.59,5.12-34.11,18.51-46.98,7.16-6.88,15.88-10.93,25.22-13.05,11.84-2.68,23.96-4.14,35.96-6.08.95-.15,1.97.08,3.23.14Z"/>
  <path class="cls-13" d="m615.47,296.13c-17.14-31.57-42.1-53.36-77.35-62.52l.17-1.35h23.4c.26-.58.3-.66.57-1.24-24.59-28.35-54.58-49.15-89.57-63.08,29.74,4.97,55.57,18.33,78.93,36.8,40.65,32.14,59.02,70.11,63.87,91.39Z"/>
  <path class="cls-13" d="m571.81,302.35c7.4-2.56,12.91-.16,17.61,6,5.14-5.99,11.19-8.41,18.85-4.18-8.07,2.05-14.69,5.94-19.05,15.34-3.58-9.17-9.95-13.68-17.41-17.15Z"/>
  <path class="cls-2" d="m438.38,455.35c21.85-9.99,43.94-14.19,66.68-2.71-22.42-3.19-44.68-3.04-66.68,2.71Z"/>
  <path class="cls-2" d="m564.8,448.69c-11.33,7.85-23.19,13.09-36.4,10.76,11.52-3.41,23.81-7.04,36.4-10.76Z"/>
  <path class="cls-21" d="m420.22,277.43c-3.79-11.26-7.94-15.31-15.24-15.26-7.09.05-11.09,4.14-14.29,14.62-1.33-3.39,1.2-10.13,5.14-13.66,4.37-3.92,10.9-4.72,16.06-1.97,5.66,3.02,9.14,9.53,8.33,16.27Z"/>
  <path class="cls-14" d="m404.91,245.73c2.27,3.09,2.21,8.91.02,10.76-1.91-2.87-2-8.27-.02-10.76Z"/>
  <path class="cls-20" d="m388.6,252.75c2.48-.15,7.16,4.73,7.15,6.33,0,.32-.34.93-.48.92-.62-.05-1.49-.07-1.79-.47-1.7-2.2-3.26-4.51-4.87-6.78Z"/>
  <path class="cls-16" d="m420.95,268.66c.93-3.4,5.12-5.4,9.01-4.65-2.29,2.98-5.45,3.58-9.01,4.65Z"/>
  <path class="cls-20" d="m380.09,264.15c2.55-.9,7.15.91,9.01,3.36-2.16,1.11-6-.27-9.01-3.36Z"/>
  <path class="cls-10" d="m420.83,252.4c.48,2.31-1.39,5.8-4.01,7.87-.92-2.21.9-5.91,4.01-7.87Z"/>
  <path class="cls-16" d="m432.17,276.77h-7.82c2.18-2.3,5.46-2.48,7.82,0Z"/>
  <path class="cls-20" d="m385.68,276.77h-7.82c2.18-2.3,5.46-2.48,7.82,0Z"/>
  <path class="cls-19" d="m589.69,276.42c-3.95-3.07-8.33-3.15-12.88-1.94-3.71.99-7.11,2.68-10.35,4.73-.35.22-.72.41-.97.56-1.24-.87-2.37-1.82-3.63-2.5-3.16-1.71-6.61-1.99-10.1-1.53-2.64.35-5.24.96-7.77,1.43.65-.43,1.39-1.01,2.2-1.46,3.57-2,7.37-3.19,11.52-2.97,2.66.14,5.14.88,7.35,2.39.38.26.65.27,1.05.06,3.2-1.71,6.5-3.14,10.11-3.7,3.75-.58,7.34-.27,10.61,1.9,1.2.79,2.12,1.83,2.87,3.04Z"/>
  <text class="cls-15" transform="translate(119.09 598.89)"><tspan class="cls-23" x="0" y="0">E</tspan><tspan class="cls-28" x="54.38" y="0">C</tspan><tspan class="cls-11" x="112.7" y="0">O TWIN AI </tspan></text>
  <path class="cls-7" d="m562.35,399.5l-16.25-3.79,1.72-5.1c3.08-2.17,3.73-.96,3.94-.91,3.33,1.21-2.42,1.26,2.83,1.51,2.67-3.73,6.41-18.32,20.34-18.42,8.22-.06,14.8,3.1,15.95,3.84,4.82,3.1,7.36,7.11,8.49,9.2l-.77,1.8-.86,1.92-.76,2.12c-.5,1.09-1.01,2.19-1.51,3.28.5-1.09,1.01-2.19,1.51-3.28l.76-2.12c.29-.64.57-1.28.86-1.92,1.28-1.1,2.66-2.57,3.83-4.5.22-.37.43-.74.61-1.1,3.58-8.13,11.41-34.32,10.5-39.42-1.26-6.86-18.52-.66-21.7,1.97-7.27,5.9-6.71,10.04-8.98,19.89-15.29-3.58-27.15,4.29-27.15,18.37-8.33.2-16.71,5.96-18.37,13.12,5.85,0,20.64,3.38,25.03,3.53Z"/>
  <path class="cls-9" d="m562.35,399.5c3.23,1.26,9.64,2.17,13.83,3.13,6.26,1.41,6.86,2.12,14.54,2.12,1.62-3.03,3.38-5.05,4.49-8.78l.25-1.01c.43-.5,1.44-2.69,1.51-3.28l.76-2.12.86-1.92.91-1.92c-.05-.96-5.55-7.42-8.63-9.08-4.64-2.47-10.35-3.94-15.95-3.84-13.93.1-17.66,14.69-20.34,18.42-5.25-.25.5-.3-2.83-1.51-.2-.05-.86-1.26-3.94.91l-1.72,5.1,16.25,3.79Z"/>
  <path class="cls-8" d="m511.62,260.77c2.27-43.96-29.98-41.74-53.65-46.48,7.47-.56,28.82,13.63,32.2,17.41,5.6,6.26,4.69,3.94,12.26,13.22,3.53,4.29,6.66,10.8,9.19,15.85h0Z"/>
  <path class="cls-6" d="m530.71,378.16l-.1-.19c0,7.07,4.12,15.23-5.57,17.55-8.78,2.12-19.03-2.62-26.8-4.24-16-3.23-37.13-6.48-43.86-18.83-20.47-37.53-39.56-10.11-49.28,18.39-4.46,13.08-3.48,26.32-1.84,34.55.81,4.09,3.28,11.36,4.74,14.48,26.65-14.13,55.19-17.58,21.05-11.25-14.67,2.72-5.45-27.81-2.47-44.01,2.52,3.48,3.23,9.99,11.46,21.7,15.65,22.26,13.83,16.22,38.95,15.14l14.24,1.08c-.71-.3-34.01-11.13-7.01-25.51,7.62-4.06,28.01,1.01,35.88.91,11.36-.2,12.77-8.82,11.59-13.7"/>
  <g>
    <path class="cls-12" d="m293.07,474c.22-.33.36-.98.35-1.47-.06-2.26.3-4.47.85-6.65.6-2.37,1.72-4.42,3.74-5.87,1.53-1.1,3.08-2.16,4.66-3.18,2.25-1.45,4.33-3.08,6.02-5.17,2.85-3.53,4.06-7.66,4.3-12.11.18-3.39-.06-6.76-.75-10.1-.15-.73-.14-.74-.86-.65-.23.03-.47.06-.7.1-4.98.87-9.49,2.79-13.37,6.07-4.88,4.11-7.33,9.38-7.41,15.76-.03,2.84.42,5.6,1.2,8.31.31,1.09.68,2.17,1.02,3.25,1.19-7.82,5.42-13.89,10.76-19.35-.2.38-.44.74-.7,1.09-2.68,3.71-4.84,7.69-6.34,12.01-.83,2.38-1.54,4.79-2.59,7.1-.66,1.46-1.13,3-1.6,4.54-.27.87-.37,1.78-.54,2.68-.23-1.01-.4-2.01-.57-3.02-.56-3.23-1.13-6.46-1.68-9.69-.7-4.12-1.44-8.23-2.47-12.28-1.91-7.52-5.49-14.08-11.08-19.51-.09-.09-.18-.18-.27-.27-.07-.08-.14-.16-.21-.24,6.55,4.33,10.88,10.39,13.81,17.64.01-.18.02-.29.02-.39.07-2.93-.17-5.84-.76-8.72-1.38-6.74-5.08-11.72-11.19-14.92-4.03-2.11-8.4-3.01-12.85-3.79,0,.26-.01.51,0,.76.15,3.04.56,6.03,1.42,8.95,1.32,4.5,3.71,8.31,7.23,11.41,1.21,1.07,2.47,2.09,3.65,3.18,4.48,4.14,7.14,9.31,8.39,15.22.43,2.05.64,4.15.85,6.23.12,1.21.02,2.44.02,3.6.01.02-.02-.02-.04-.06-1.19-3.24-2.38-6.47-3.56-9.71-1.58-4.32-4.06-7.99-7.77-10.76-2.89-2.16-6.11-3.55-9.73-3.86-3.4-.3-6.68.27-9.77,1.75-1.25.6-2.43,1.33-3.65,2.01.31.65.55,1.17.8,1.69,1.76,3.6,4.09,6.76,7.19,9.32,4.17,3.44,9,5.05,14.37,5.17,1.06.02,2.11.15,3.16.27.6.07,1.18.21,1.88.35-2.03-2.12-4-4.16-5.96-6.21,2.78.82,5.19,2.29,7.54,3.9-1.64-2.23-3.68-4.06-5.79-5.8-2.12-1.74-4.44-3.19-6.82-4.55,3.45.91,6.56,2.51,9.39,4.64,1.77,1.33,3.39,2.81,4.6,4.68,2.08,3.19,2.81,6.8,3.1,10.51.14,1.78.14,3.58.2,5.37.49.01.95.07,1.44.14.62.08,1.25.22,1.87.29"/>
    <path class="cls-22" d="m299.42,466.16c1.9-2.37,3.77-4.78,5.72-7.13,1.67-2.01,3.56-3.78,5.91-4.98,2.61-1.34,5.37-1.86,8.3-1.58,2.1.2,4.08.77,5.92,1.81.41.23.79.51,1.24.8-.24.28-.44.52-.64.75-2.96,3.4-6.6,5.76-10.96,6.95-1.8.5-3.65.7-5.51.82-3.35.21-6.56,1.01-9.63,2.4-.13.06-.25.11-.35.15Z"/>
  </g>
  <path class="cls-3" d="m346.45,308.93l-.12,2.07c-3.4.6-15.93,3.98-18.75,6.56-2.27,1.54-4.38,2.74-6.7,4.07-2.42,1.39-4.04,3-6.15,4.45-1.19.82-10.85,9.04-11.24,10.09,5.95.35,20.26-3.33,25.14-5.9,1.75-.95,3.4-2.11,4.95-3.02.93-.58,1.7-1.16,2.48-1.74,3.77-2.65,2.13-1.75,4.31-3.65l4.05-3.55c1.4-1.17.82-.38,1.73-2.01,3.32.26,3.17.31,1.78,5.71l-1.71,15.19c-.34,12.01-3.06,27.32-2.63,40.56-.56,6.34-.59,13.36-1.45,19.6.73.83-.16.3,1.15.44.52-.44.78-.83,1.25-1.22.63-.59.88-.58,1.65-1.06l8.94-6.12c.18-5.6-.72-11.94-.56-18.35.06-3.38-.48-5.37-.42-8.8.09-2.88.32-6.86,0-9.54-.38-.62-.35-15.77-.58-18-.41-2.99-.13-6.82.02-9.9.14-2.72-1-4.83-.8-7.85,2.13-.33,2.26.43,3.24,1.42,1.47,1.41,1.2.39,2.35,2.3,2.01,3.3,5.83,6.96,8.73,9.53,7.32,6.4,22.8,13.22,32.63,13.54-.21-1.22-1.79-2.38-3.29-4.4l-1.06-1.65c-2.07-1.48-8.06-8.49-12.89-11.93-2.22-1.54-5.24-3.4-7.52-4.79-3.42-2.03-6.12-2.83-8.2-3.95-3.28-1.52-8.18-3.14-11.36-4.66-.2-3.29.11-3.53-3.05-4.14.61-4.93,4.41-12.99,4.53-13.44,0-.2.11-.2.16-.3-.09-2.02.8-2.75.93-5.37l-.89-8.31c-.22-.87-.2-1.52-.42-2.54l-7.08-23.05c0-.05-.1-.1-.14-.26,0-.1-.1-.15-.14-.21-.26.29-.26.24-.48.79l-.48,2.26c-.18,1-.47,2.11-.71,3.21-1.58,6.56-3.13,21.66-2.84,28.39.16,4.3,3.5,18.24,3.53,18.8l-1.89.75Z"/>
  <g>
    <path class="cls-5" d="m503.41,627.6c-4.29,2.02-10.35,1.31-15.44,2.32-13.68,2.67-33.46,4.79-46.68,7.92-9.99,2.37-19.83,3.99-29.73,6.51-25.64,6.46-69.4,13.02-95.03,14.43-16.35.96-36.79,1.36-53.45.35-5.5-.3-11.86-1.11-17.31-.81,2.47,1.67,22.16,4.59,25.03,4.79,4.39.35,9.29.86,13.43,1.51,4.34.71,9.49.45,13.73,1.21l13.98.71c10.35.1,17.82.5,28.97.35,4.54-.1,10.4.3,14.69-.35,4.74-.71,9.29.1,13.98-.96,2.17-.45,4.85-.15,7.22-.35l9.94-1.26c1.26-.1,2.32.05,3.63-.15,5.8-.91,13.07-1.51,19.38-2.67,8.58-1.51,16.96-2.57,25.39-4.34,8.08-1.67,16.91-3.28,24.93-4.85,10.25-1.97,27.56-5.5,37.7-7.02,4.24-.61,8.83-1.01,12.97-1.82,4.04-.81,8.98-1.51,12.97-1.82,4.44-.4,9.03-1.26,13.37-1.62,2.27-.15,4.85-.56,6.81-.56,2.67-.05,4.39-.56,6.61-.71,2.52-.15,5.05.1,7.52-.05,7.52-.56,14.03-.96,21.75-.71,4.44.15,9.79.86,14.13.81,6.21-.1,20.29,2.12,27.1,2.73,5.1.45,19.53,3.43,25.13,4.64,4.09.86,8.08,1.92,12.06,2.83l10.19,3.18c1.21-.1.35.25,1.11-.61-6.21-3.03-29.02-11-35.28-12.67-11.86-3.18-16.91-4.79-29.07-6.81-1.77-.3-3.48-.76-5.2-1.06l-32.35-3.58c-13.93-.4-40.02-1.21-52.39.05-3.94.35-7.92.1-11.81.4h0Z"/>
    <path class="cls-4" d="m245.76,658.34c5.45-.3,11.81.5,17.31.81,16.66,1.01,37.1.61,53.45-.35,25.64-1.41,69.4-7.97,95.03-14.43,9.89-2.52,19.73-4.14,29.73-6.51,13.22-3.13,33.01-5.25,46.68-7.92,5.1-1.01,11.15-.3,15.44-2.32-3.58.05-8.38.56-11.76.35-8.83-.45-14.03-.96-23.22-.3-2.07.15-2.93.66-5.4.61l-22.21,1.26c-1.82.25-3.79.1-5.65.25-1.92.15-3.84.15-5.75.3l-89.28,11.2c-2.02,0-9.14.71-10.9,1.11-2.88.61-19.38,1.41-22.66,1.41-5.7-.05-16.1.76-22.91.81-5.5,0-28.52-.45-34.32-1.06-3.68-.35-7.57-.45-11.1-.81-21.8-2.32-47.54-7.37-68.84-13.93-2.98-.96-5.96-2.67-8.58-3.33.76.96,7.32,4.54,9.24,5.7,4.19,2.52,14.74,8.23,19.23,10.14,14.79,6.36,40.48,16.35,56.48,17.01h0Z"/>
  </g>
</svg>